<svg viewBox="0 0 320 90" xmlns="http://www.w3.org/2000/svg">
  <g fill="none" fill-rule="evenodd">
    <!-- Crossref Ring Motif -->
    <g transform="translate(12, 12)">
      <!-- 4 colored arcs -->
      <path d="M33 5a28 28 0 0 1 28 28h-9a19 19 0 0 0-19-19V5z" fill="#ef4136"/>
      <path d="M61 33a28 28 0 0 1-28 28v-9a19 19 0 0 0 19-19h9z" fill="#f7941d"/>
      <path d="M33 61a28 28 0 0 1-28-28h9a19 19 0 0 0 19 19v9z" fill="#8dc63f"/>
      <path d="M5 33A28 28 0 0 1 33 5v9a19 19 0 0 0-19 19H5z" fill="#0072bc"/>
    </g>

    <!-- Text: Crossref -->
    <text x="88" y="56" font-family="'Sora', 'Segoe UI', system-ui, sans-serif" font-size="42" font-weight="800" fill="#231f20" letter-spacing="-1">Cross<tspan fill="#ef4136">ref</tspan></text>
    <text x="90" y="73" font-family="'Sora', 'Segoe UI', system-ui, sans-serif" font-size="11" font-weight="600" fill="#667085" letter-spacing="1.5">GLOBAL DOI REGISTRY</text>
  </g>
</svg>
